<svg width="20" height="21" viewBox="0 0 20 21" fill="none" xmlns="http://www.w3.org/2000/svg">
<path d="M3.74992 1.95837C2.48427 1.95837 1.45825 2.98439 1.45825 4.25004V16.75C1.45825 18.0157 2.48427 19.0417 3.74992 19.0417H8.97109L8.971 12.7913H8.33325C7.75795 12.7913 7.29159 12.3249 7.29159 11.7496C7.29159 11.1743 7.75795 10.708 8.33325 10.708H8.96709L8.95867 8.42675C8.95309 6.92707 10.1673 5.70837 11.6669 5.70837H14.1666C14.7419 5.70837 15.2083 6.17474 15.2083 6.75004C15.2083 7.32534 14.7419 7.79171 14.1666 7.79171H11.6669C11.3208 7.79171 11.0407 8.07294 11.042 8.41902L11.0504 10.708H12.4998C13.0751 10.708 13.5415 11.1743 13.5415 11.7496C13.5415 12.3249 13.0751 12.7913 12.4998 12.7913H11.0543L11.0544 19.0417H16.2499C17.5156 19.0417 18.5416 18.0157 18.5416 16.75V4.25004C18.5416 2.98439 17.5156 1.95837 16.2499 1.95837H3.74992Z" fill="white"/>
</svg>
