<svg width="545" height="406" viewBox="0 0 545 406" fill="none" xmlns="http://www.w3.org/2000/svg">
<path d="M545 356.786H0V357.059H545V356.786Z" fill="#EBEBEB"/>
<path d="M490.391 374.321H454.29V374.593H490.391V374.321Z" fill="#EBEBEB"/>
<path d="M361.03 377.285H351.558V377.557H361.03V377.285Z" fill="#EBEBEB"/>
<path d="M453.2 364.208H432.283V364.48H453.2V364.208Z" fill="#EBEBEB"/>
<path d="M104.258 366.039H57.1814V366.311H104.258V366.039Z" fill="#EBEBEB"/>
<path d="M120.87 366.039H113.97V366.311H120.87V366.039Z" fill="#EBEBEB"/>
<path d="M245.414 370.637H143.302V370.91H245.414V370.637Z" fill="#EBEBEB"/>
<path d="M258.33 308.183H47.8619C46.2131 308.18 44.6329 307.523 43.468 306.357C42.3032 305.19 41.6489 303.609 41.6489 301.961V6.16802C41.6633 4.52906 42.3238 2.96194 43.4871 1.80705C44.6505 0.652174 46.2225 0.00280764 47.8619 0H258.33C259.981 0 261.564 0.655584 262.731 1.82253C263.898 2.98948 264.554 4.5722 264.554 6.22251V301.961C264.554 303.611 263.898 305.194 262.731 306.361C261.564 307.528 259.981 308.183 258.33 308.183ZM47.8619 0.217952C46.2854 0.220839 44.7744 0.848992 43.6607 1.96453C42.5469 3.08008 41.9214 4.59185 41.9214 6.16802V301.961C41.9214 303.537 42.5469 305.049 43.6607 306.164C44.7744 307.28 46.2854 307.908 47.8619 307.911H258.33C259.908 307.908 261.42 307.28 262.535 306.165C263.651 305.05 264.279 303.538 264.281 301.961V6.16802C264.279 4.59085 263.651 3.0791 262.535 1.96387C261.42 0.848638 259.908 0.220833 258.33 0.217952H47.8619Z" fill="#EBEBEB"/>
<path d="M494.108 308.183H283.629C281.979 308.18 280.398 307.524 279.231 306.358C278.065 305.191 277.408 303.61 277.405 301.961V6.16802C277.422 4.52806 278.085 2.96095 279.25 1.80637C280.415 0.651793 281.988 0.00277702 283.629 0H494.108C495.745 0.00567164 497.315 0.656305 498.476 1.81088C499.637 2.96545 500.296 4.53094 500.31 6.16802V301.961C500.31 303.607 499.657 305.187 498.495 306.353C497.332 307.519 495.755 308.177 494.108 308.183ZM283.629 0.217952C282.051 0.220833 280.539 0.848638 279.424 1.96387C278.308 3.0791 277.68 4.59085 277.677 6.16802V301.961C277.68 303.538 278.308 305.05 279.424 306.165C280.539 307.28 282.051 307.908 283.629 307.911H494.108C495.685 307.908 497.198 307.28 498.313 306.165C499.428 305.05 500.056 303.538 500.059 301.961V6.16802C500.056 4.59085 499.428 3.0791 498.313 1.96387C497.198 0.848638 495.685 0.220833 494.108 0.217952H283.629Z" fill="#EBEBEB"/>
<path d="M345.029 247.865H475.992C475.992 250.178 475.098 252.402 473.498 254.073C471.898 255.744 469.714 256.733 467.403 256.834C453.331 257.477 431.673 259.7 424.817 267.481C412.009 281.996 413.252 332.975 428.588 344.777C433.384 348.482 447.401 355.827 447.401 355.827H373.619C373.619 355.827 386.699 348.33 391.266 344.777C406.526 332.877 406.952 281.931 394.09 267.481C387.495 260.071 367.199 257.673 353.585 256.921C351.271 256.793 349.094 255.782 347.502 254.098C345.91 252.413 345.025 250.183 345.029 247.865Z" fill="#F5F5F5"/>
<path d="M459.762 257.313C446.464 258.403 430.528 261.008 424.817 267.481C422.952 269.717 421.478 272.252 420.457 274.978H398.493C397.458 272.258 395.985 269.726 394.133 267.481C388.4 261.04 372.333 258.392 359.253 257.313H459.762Z" fill="#E6E6E6"/>
<path d="M400.815 247.93L402.602 227.585H376.78L375.004 247.93H400.815Z" fill="#EBEBEB"/>
<path d="M400.815 247.93L402.602 227.585H403.987L402.21 247.93H400.815Z" fill="#E0E0E0"/>
<path d="M398.362 245.86L399.779 229.655H379.233L377.816 245.86H398.362Z" fill="#F0F0F0"/>
<path d="M396.793 244.52L397.97 230.996H380.813L379.625 244.52H396.793Z" fill="#FAFAFA"/>
<path d="M409.186 247.865H435.117L432.239 214.987H406.308L409.186 247.865Z" fill="#E6E6E6"/>
<path d="M409.186 247.865H407.954L405.077 214.987H406.308L409.186 247.865Z" fill="#E0E0E0"/>
<path d="M411.54 244.52H432.185L429.896 218.344H409.251L411.54 244.52Z" fill="#F0F0F0"/>
<path d="M413.045 242.362H430.299L428.381 220.501H411.137L413.045 242.362Z" fill="#FAFAFA"/>
<path d="M421.765 230.331C421.486 230.611 421.155 230.833 420.79 230.985C420.425 231.137 420.034 231.215 419.639 231.215C419.244 231.215 418.853 231.137 418.488 230.985C418.123 230.833 417.792 230.611 417.514 230.331C416.954 229.767 416.64 229.006 416.64 228.211C416.64 227.417 416.954 226.655 417.514 226.092C418.079 225.531 418.843 225.217 419.639 225.217C420.435 225.217 421.199 225.531 421.765 226.092C422.324 226.655 422.639 227.417 422.639 228.211C422.639 229.006 422.324 229.767 421.765 230.331Z" fill="#EBEBEB"/>
<path d="M420.489 234.014C420.692 233.809 420.934 233.645 421.201 233.533C421.467 233.422 421.753 233.364 422.043 233.364C422.332 233.364 422.618 233.422 422.884 233.533C423.151 233.645 423.393 233.809 423.596 234.014C423.911 234.318 424.127 234.709 424.217 235.138C424.307 235.566 424.265 236.011 424.098 236.416C423.931 236.82 423.646 237.165 423.281 237.405C422.915 237.646 422.486 237.77 422.048 237.763C421.61 237.773 421.178 237.649 420.811 237.41C420.444 237.17 420.157 236.826 419.989 236.421C419.82 236.016 419.778 235.57 419.867 235.14C419.957 234.711 420.173 234.319 420.489 234.014Z" fill="#F0F0F0"/>
<path d="M89.0748 210.388L211.362 210.388L211.362 75.1714L89.0748 75.1714L89.0748 210.388Z" fill="#E0E0E0"/>
<path d="M85.1726 210.388L212.005 210.388L212.005 75.1714L85.1726 75.1714L85.1726 210.388Z" fill="#F0F0F0"/>
<path d="M90.5463 204.166L206.849 204.166L206.849 79.476L90.5463 79.476L90.5463 204.166Z" fill="white"/>
<path d="M90.5354 204.166H93.9035L93.9035 79.476H90.5354L90.5354 204.166Z" fill="#E0E0E0"/>
<path d="M93.5438 169.141V172.509H207.144V169.141H93.5438Z" fill="#E0E0E0"/>
<path d="M90.5354 169.141L208.648 169.141V163.496H90.5354V169.141Z" fill="#F0F0F0"/>
<path d="M412.445 98.3178C412.445 98.3178 413.535 91.1254 408.292 86.5157C403.049 81.9061 403.507 79.1599 405.022 78.8003C406.537 78.4406 407.9 83.0612 410.211 84.3253C410.211 84.3253 410.287 77.7868 407.943 75.3348C405.6 72.8829 404.368 66.6822 406.603 66.6168C408.837 66.5514 409.055 70.322 409.524 73.0246C409.993 75.7272 412.467 79.5631 412.467 79.5631C412.467 79.5631 412.946 73.6784 414.462 71.2591C415.977 68.8399 411.944 63.3039 413.502 60.8847C415.061 58.4654 417.862 63.0642 417.59 68.2623C417.317 73.4605 413.906 78.9855 414.712 84.4016C414.712 84.4016 416.238 80.5984 417.601 80.2496C418.963 79.9009 420.358 77.3945 421.274 76.4573C422.19 75.5201 423.356 78.7567 421.274 81.7535C419.192 84.7503 413.906 92.771 414.734 99.2441L412.445 98.3178Z" fill="#E6E6E6"/>
<path d="M409.306 95.0486L407.584 105.826C407.453 106.613 407.496 107.419 407.711 108.187C407.925 108.955 408.306 109.666 408.826 110.271C409.346 110.876 409.992 111.359 410.719 111.687C411.446 112.015 412.236 112.179 413.034 112.169H414.865C415.662 112.179 416.453 112.015 417.18 111.687C417.907 111.359 418.553 110.876 419.073 110.271C419.592 109.666 419.973 108.955 420.188 108.187C420.402 107.419 420.446 106.613 420.315 105.826L418.56 95.0486H409.306Z" fill="#F5F5F5"/>
<path d="M435.281 108.191H313.855V114.425H435.281V108.191Z" fill="#E6E6E6"/>
<path d="M324.798 85.1973H319.446V108.191H324.798V85.1973Z" fill="#F0F0F0"/>
<path d="M350.664 85.1973H345.312V108.191H350.664V85.1973Z" fill="#F0F0F0"/>
<path d="M380.034 84.6128L374.76 85.5217L378.667 108.181L383.941 107.273L380.034 84.6128Z" fill="#F0F0F0"/>
<path d="M331.425 88.2268H326.073V108.191H331.425V88.2268Z" fill="#F0F0F0"/>
<path d="M343.721 88.2268H338.369V108.191H343.721V88.2268Z" fill="#F0F0F0"/>
<path d="M374.764 88.2268H369.412V108.191H374.764V88.2268Z" fill="#F0F0F0"/>
<path d="M357.689 87.5206L352.464 88.6814L356.797 108.17L362.021 107.009L357.689 87.5206Z" fill="#F0F0F0"/>
<path d="M336.047 84.053H333.377V108.191H336.047V84.053Z" fill="#F0F0F0"/>
<path d="M367.864 84.053H365.194V108.191H367.864V84.053Z" fill="#F0F0F0"/>
<path d="M313.866 160.99L435.292 160.99V154.756L313.866 154.756V160.99Z" fill="#E6E6E6"/>
<path d="M424.348 154.756H429.7V131.762H424.348V154.756Z" fill="#F0F0F0"/>
<path d="M398.482 154.756H403.834V131.762H398.482V154.756Z" fill="#F0F0F0"/>
<path d="M365.219 153.826L370.493 154.735L374.4 132.075L369.125 131.166L365.219 153.826Z" fill="#F0F0F0"/>
<path d="M417.721 154.756H423.073V134.792H417.721V154.756Z" fill="#F0F0F0"/>
<path d="M405.426 154.756H410.777V134.792H405.426V154.756Z" fill="#F0F0F0"/>
<path d="M374.382 154.756H379.734V134.792H374.382V154.756Z" fill="#F0F0F0"/>
<path d="M387.137 153.571L392.361 154.732L396.694 135.243L391.469 134.082L387.137 153.571Z" fill="#F0F0F0"/>
<path d="M413.099 154.756H415.77V130.618H413.099V154.756Z" fill="#F0F0F0"/>
<path d="M381.282 154.756H383.953V130.618H381.282V154.756Z" fill="#F0F0F0"/>
<path d="M325.518 154.549H351.579V136.557H325.518V154.549Z" fill="#F5F5F5"/>
<path d="M272.5 406C389.22 406 483.84 400.477 483.84 393.664C483.84 386.851 389.22 381.328 272.5 381.328C155.78 381.328 61.1599 386.851 61.1599 393.664C61.1599 400.477 155.78 406 272.5 406Z" fill="white"/>
<path d="M362.392 366.409C362.392 366.409 356.942 354.64 363.155 343.023C369.368 331.406 371.112 328.682 367.188 326.306C363.264 323.93 361.444 335.645 361.444 335.645C359.492 330.375 359.289 324.617 360.866 319.223C363.602 310.821 365.324 297.144 361.586 295.673C357.847 294.202 360.877 312.739 357.629 319.059C355.976 314.626 354.909 309.995 354.457 305.285C354.01 298.539 354.708 287.761 351.754 285.004C348.8 282.247 346.914 284.143 349.814 299.04C351.556 307.934 352.519 316.962 352.691 326.023C352.691 326.023 346.293 306.494 341.987 305.928C337.682 305.361 337.693 311.682 341.377 317.163C345.061 322.645 352.157 332.474 353.313 337.531C353.313 337.531 346.282 322.841 339.96 327.341C333.638 331.842 345.465 340.724 350.74 343.927C356.016 347.131 359.678 367.237 359.678 367.237L362.392 366.409Z" fill="#0F75BC"/>
<path opacity="0.2" d="M362.392 366.409C362.392 366.409 356.942 354.64 363.155 343.023C369.368 331.406 371.112 328.682 367.188 326.306C363.264 323.93 361.444 335.645 361.444 335.645C359.492 330.375 359.289 324.617 360.866 319.223C363.602 310.821 365.324 297.144 361.586 295.673C357.847 294.202 360.877 312.739 357.629 319.059C355.976 314.626 354.909 309.995 354.457 305.285C354.01 298.539 354.708 287.761 351.754 285.004C348.8 282.247 346.914 284.143 349.814 299.04C351.556 307.934 352.519 316.962 352.691 326.023C352.691 326.023 346.293 306.494 341.987 305.928C337.682 305.361 337.693 311.682 341.377 317.163C345.061 322.645 352.157 332.474 353.313 337.531C353.313 337.531 346.282 322.841 339.96 327.341C333.638 331.842 345.465 340.724 350.74 343.927C356.016 347.131 359.678 367.237 359.678 367.237L362.392 366.409Z" fill="black"/>
<path d="M358.13 371.237C358.13 371.237 363.384 359.38 357.04 347.872C350.697 336.365 348.909 333.64 352.811 331.21C356.713 328.78 358.654 340.408 358.654 340.408C360.544 335.113 360.678 329.351 359.035 323.974C356.201 315.627 354.315 301.972 358.043 300.446C361.771 298.921 358.959 317.501 362.272 323.767C363.876 319.309 364.888 314.659 365.281 309.938C365.651 303.192 364.823 292.426 367.744 289.625C370.665 286.824 372.573 288.699 369.848 303.628C368.21 312.545 367.356 321.588 367.297 330.654C367.297 330.654 373.467 311.039 377.761 310.407C382.056 309.775 382.121 316.095 378.502 321.631C374.884 327.167 367.919 337.106 366.807 342.173C366.807 342.173 373.663 327.374 380.039 331.788C386.416 336.201 374.698 345.246 369.466 348.537C364.234 351.828 360.812 371.978 360.812 371.978L358.13 371.237Z" fill="#0F75BC"/>
<path d="M382.372 362.791H338.946L342.467 393.86H378.862L382.372 362.791Z" fill="#263238"/>
<path opacity="0.2" d="M467.664 53.8342H238.154C236.661 53.8342 235.451 55.0442 235.451 56.5368V260.343C235.451 261.836 236.661 263.046 238.154 263.046H467.664C469.157 263.046 470.368 261.836 470.368 260.343V56.5368C470.368 55.0442 469.157 53.8342 467.664 53.8342Z" fill="black"/>
<path d="M458.781 49.9656H229.271C227.778 49.9656 226.567 51.1756 226.567 52.6682V256.475C226.567 257.967 227.778 259.177 229.271 259.177H458.781C460.274 259.177 461.484 257.967 461.484 256.475V52.6682C461.484 51.1756 460.274 49.9656 458.781 49.9656Z" fill="#0F75BC"/>
<path opacity="0.6" d="M226.567 68.6548V256.485C226.512 257.13 226.707 257.771 227.114 258.275C227.52 258.779 228.105 259.106 228.747 259.188H459.239C459.893 259.122 460.494 258.801 460.914 258.296C461.334 257.79 461.539 257.14 461.484 256.485V68.6548H226.567Z" fill="white"/>
<path d="M458.694 79.6724H229.347V245.61H458.694V79.6724Z" fill="white"/>
<path opacity="0.6" d="M453.811 62.8901C455.713 62.8901 457.255 61.0312 457.255 58.7382C457.255 56.4451 455.713 54.5862 453.811 54.5862C451.908 54.5862 450.366 56.4451 450.366 58.7382C450.366 61.0312 451.908 62.8901 453.811 62.8901Z" fill="white"/>
<path opacity="0.6" d="M442.529 62.8901C444.431 62.8901 445.973 61.0312 445.973 58.7382C445.973 56.4451 444.431 54.5862 442.529 54.5862C440.627 54.5862 439.085 56.4451 439.085 58.7382C439.085 61.0312 440.627 62.8901 442.529 62.8901Z" fill="white"/>
<path opacity="0.6" d="M434.681 58.7382C434.681 61.0267 433.144 62.8792 431.237 62.8792C429.329 62.8792 427.803 61.0267 427.803 58.7382C427.803 56.4497 429.34 54.5862 431.237 54.5862C433.133 54.5862 434.681 56.4388 434.681 58.7382Z" fill="white"/>
<path d="M278.212 99.0483V141.843L267.203 155.116H242.819V99.0483H278.212Z" fill="#0F75BC"/>
<path opacity="0.7" d="M278.212 99.0483V141.843L267.203 155.116H242.819V99.0483H278.212Z" fill="white"/>
<path opacity="0.3" d="M278.212 141.843L267.203 155.116V141.843H278.212Z" fill="#0F75BC"/>
<path opacity="0.3" d="M272.729 107.134H248.313V108.736H272.729V107.134Z" fill="#0F75BC"/>
<path opacity="0.3" d="M272.729 113.215H248.313V114.817H272.729V113.215Z" fill="#0F75BC"/>
<path opacity="0.3" d="M272.729 119.307H248.313V120.92H272.729V119.307Z" fill="#0F75BC"/>
<path opacity="0.3" d="M272.729 125.398H248.313V127H272.729V125.398Z" fill="#0F75BC"/>
<path opacity="0.3" d="M266.418 131.49H248.313V133.103H266.418V131.49Z" fill="#0F75BC"/>
<path d="M334.347 99.0483V141.843L323.338 155.116H298.954V99.0483H334.347Z" fill="#0F75BC"/>
<path opacity="0.7" d="M334.347 99.0483V141.843L323.338 155.116H298.954V99.0483H334.347Z" fill="white"/>
<path opacity="0.3" d="M334.347 141.843L323.338 155.116V141.843H334.347Z" fill="#0F75BC"/>
<path opacity="0.3" d="M328.853 107.134H304.437V108.736H328.853V107.134Z" fill="#0F75BC"/>
<path opacity="0.3" d="M328.853 113.215H304.437V114.817H328.853V113.215Z" fill="#0F75BC"/>
<path opacity="0.3" d="M328.853 119.307H304.437V120.92H328.853V119.307Z" fill="#0F75BC"/>
<path opacity="0.3" d="M328.853 125.398H304.437V127H328.853V125.398Z" fill="#0F75BC"/>
<path opacity="0.3" d="M322.542 131.49H304.437V133.103H322.542V131.49Z" fill="#0F75BC"/>
<path d="M390.482 99.0483V141.843L379.473 155.116H355.089V99.0483H390.482Z" fill="#0F75BC"/>
<path opacity="0.7" d="M390.482 99.0483V141.843L379.473 155.116H355.089V99.0483H390.482Z" fill="white"/>
<path opacity="0.3" d="M390.482 141.843L379.473 155.116V141.843H390.482Z" fill="#0F75BC"/>
<path opacity="0.3" d="M384.988 107.134H360.572V108.736H384.988V107.134Z" fill="#0F75BC"/>
<path opacity="0.3" d="M384.988 113.215H360.572V114.817H384.988V113.215Z" fill="#0F75BC"/>
<path opacity="0.3" d="M384.988 119.307H360.572V120.92H384.988V119.307Z" fill="#0F75BC"/>
<path opacity="0.3" d="M384.988 125.398H360.572V127H384.988V125.398Z" fill="#0F75BC"/>
<path opacity="0.3" d="M378.677 131.49H360.572V133.103H378.677V131.49Z" fill="#0F75BC"/>
<path d="M446.617 99.0483V141.843L435.597 155.116H411.224V99.0483H446.617Z" fill="#0F75BC"/>
<path opacity="0.7" d="M446.617 99.0483V141.843L435.597 155.116H411.224V99.0483H446.617Z" fill="white"/>
<path opacity="0.3" d="M446.617 141.843L435.597 155.116V141.843H446.617Z" fill="#0F75BC"/>
<path opacity="0.3" d="M441.123 107.134H416.707V108.736H441.123V107.134Z" fill="#0F75BC"/>
<path opacity="0.3" d="M441.123 113.215H416.707V114.817H441.123V113.215Z" fill="#0F75BC"/>
<path opacity="0.3" d="M441.123 119.307H416.707V120.92H441.123V119.307Z" fill="#0F75BC"/>
<path opacity="0.3" d="M441.123 125.398H416.707V127H441.123V125.398Z" fill="#0F75BC"/>
<path opacity="0.3" d="M434.812 131.49H416.707V133.103H434.812V131.49Z" fill="#0F75BC"/>
<path d="M278.212 173.152V215.946L267.203 229.22H242.819V173.152H278.212Z" fill="#0F75BC"/>
<path opacity="0.7" d="M278.212 173.152V215.946L267.203 229.22H242.819V173.152H278.212Z" fill="white"/>
<path opacity="0.3" d="M278.212 215.947L267.203 229.22V215.947H278.212Z" fill="#0F75BC"/>
<path opacity="0.3" d="M272.729 181.238H248.313V182.84H272.729V181.238Z" fill="#0F75BC"/>
<path opacity="0.3" d="M272.729 187.319H248.313V188.921H272.729V187.319Z" fill="#0F75BC"/>
<path opacity="0.3" d="M272.729 193.41H248.313V195.023H272.729V193.41Z" fill="#0F75BC"/>
<path opacity="0.3" d="M272.729 199.502H248.313V201.115H272.729V199.502Z" fill="#0F75BC"/>
<path opacity="0.3" d="M266.418 205.594H248.313V207.196H266.418V205.594Z" fill="#0F75BC"/>
<path d="M334.347 173.152V215.946L323.338 229.22H298.954V173.152H334.347Z" fill="#0F75BC"/>
<path opacity="0.7" d="M334.347 173.152V215.946L323.338 229.22H298.954V173.152H334.347Z" fill="white"/>
<path opacity="0.3" d="M334.347 215.947L323.338 229.22V215.947H334.347Z" fill="#0F75BC"/>
<path opacity="0.3" d="M328.853 181.238H304.437V182.84H328.853V181.238Z" fill="#0F75BC"/>
<path opacity="0.3" d="M328.853 187.319H304.437V188.921H328.853V187.319Z" fill="#0F75BC"/>
<path opacity="0.3" d="M328.853 193.41H304.437V195.023H328.853V193.41Z" fill="#0F75BC"/>
<path opacity="0.3" d="M328.853 199.502H304.437V201.115H328.853V199.502Z" fill="#0F75BC"/>
<path opacity="0.3" d="M322.542 205.594H304.437V207.196H322.542V205.594Z" fill="#0F75BC"/>
<path d="M390.482 173.152V215.946L379.473 229.22H355.089V173.152H390.482Z" fill="#0F75BC"/>
<path opacity="0.7" d="M390.482 173.152V215.946L379.473 229.22H355.089V173.152H390.482Z" fill="white"/>
<path opacity="0.3" d="M390.482 215.947L379.473 229.22V215.947H390.482Z" fill="#0F75BC"/>
<path opacity="0.3" d="M384.988 181.238H360.572V182.84H384.988V181.238Z" fill="#0F75BC"/>
<path opacity="0.3" d="M384.988 187.319H360.572V188.921H384.988V187.319Z" fill="#0F75BC"/>
<path opacity="0.3" d="M384.988 193.41H360.572V195.023H384.988V193.41Z" fill="#0F75BC"/>
<path opacity="0.3" d="M384.988 199.502H360.572V201.115H384.988V199.502Z" fill="#0F75BC"/>
<path opacity="0.3" d="M378.677 205.594H360.572V207.196H378.677V205.594Z" fill="#0F75BC"/>
<path d="M446.617 173.152V215.946L435.597 229.22H411.224V173.152H446.617Z" fill="#0F75BC"/>
<path opacity="0.7" d="M446.617 173.152V215.946L435.597 229.22H411.224V173.152H446.617Z" fill="white"/>
<path opacity="0.3" d="M446.617 215.947L435.597 229.22V215.947H446.617Z" fill="#0F75BC"/>
<path opacity="0.3" d="M441.123 181.238H416.707V182.84H441.123V181.238Z" fill="#0F75BC"/>
<path opacity="0.3" d="M441.123 187.319H416.707V188.921H441.123V187.319Z" fill="#0F75BC"/>
<path opacity="0.3" d="M441.123 193.41H416.707V195.023H441.123V193.41Z" fill="#0F75BC"/>
<path opacity="0.3" d="M441.123 199.502H416.707V201.115H441.123V199.502Z" fill="#0F75BC"/>
<path opacity="0.3" d="M434.812 205.594H416.707V207.196H434.812V205.594Z" fill="#0F75BC"/>
<path opacity="0.1" d="M359.656 137.691H303.162C300.543 137.691 298.42 139.813 298.42 142.431V184.758C298.42 187.376 300.543 189.498 303.162 189.498H359.656C362.275 189.498 364.398 187.376 364.398 184.758V142.431C364.398 139.813 362.275 137.691 359.656 137.691Z" fill="black"/>
<g opacity="0.1">
<path d="M355.612 135.282H349.072V128.21C349.072 123.742 347.297 119.456 344.137 116.297C340.977 113.137 336.69 111.362 332.221 111.362C327.752 111.362 323.466 113.137 320.305 116.297C317.145 119.456 315.37 123.742 315.37 128.21V135.282H308.83V128.21C308.83 122.008 311.294 116.059 315.681 111.673C320.068 107.288 326.017 104.824 332.221 104.824C338.425 104.824 344.375 107.288 348.761 111.673C353.148 116.059 355.612 122.008 355.612 128.21V135.282Z" fill="black"/>
</g>
<path d="M332.406 135.511H275.912C273.293 135.511 271.17 137.634 271.17 140.252V182.578C271.17 185.196 273.293 187.319 275.912 187.319H332.406C335.025 187.319 337.148 185.196 337.148 182.578V140.252C337.148 137.634 335.025 135.511 332.406 135.511Z" fill="#263238"/>
<path opacity="0.2" d="M320.471 135.511H275.912C273.293 135.511 271.17 137.634 271.17 140.252V182.578C271.17 185.196 273.293 187.319 275.912 187.319H320.471C323.09 187.319 325.212 185.196 325.212 182.578V140.252C325.212 137.634 323.09 135.511 320.471 135.511Z" fill="white"/>
<path d="M301.505 154.953C301.505 151.378 299.325 148.479 296.643 148.479C293.962 148.479 291.793 151.378 291.793 154.953C291.728 156.131 291.975 157.305 292.509 158.357C293.043 159.41 293.845 160.303 294.834 160.946L293.929 174.459H299.379L298.486 160.946C299.469 160.298 300.265 159.404 300.795 158.352C301.325 157.301 301.57 156.128 301.505 154.953Z" fill="#263238"/>
<path d="M328.362 133.103H321.822V126.03C321.822 121.562 320.047 117.277 316.887 114.117C313.727 110.958 309.44 109.183 304.971 109.183C300.502 109.183 296.216 110.958 293.055 114.117C289.895 117.277 288.12 121.562 288.12 126.03V133.103H281.58V126.03C281.58 119.828 284.044 113.88 288.431 109.494C292.818 105.108 298.767 102.644 304.971 102.644C311.175 102.644 317.125 105.108 321.511 109.494C325.898 113.88 328.362 119.828 328.362 126.03V133.103Z" fill="#263238"/>
<g opacity="0.4">
<path d="M328.362 133.103H321.822V126.03C321.822 121.562 320.047 117.277 316.887 114.117C313.727 110.958 309.44 109.183 304.971 109.183C300.502 109.183 296.216 110.958 293.055 114.117C289.895 117.277 288.12 121.562 288.12 126.03V133.103H281.58V126.03C281.58 119.828 284.044 113.88 288.431 109.494C292.818 105.108 298.767 102.644 304.971 102.644C311.175 102.644 317.125 105.108 321.511 109.494C325.898 113.88 328.362 119.828 328.362 126.03V133.103Z" fill="white"/>
</g>
<path opacity="0.2" d="M328.362 126.031V133.103H323.926V125.224C323.926 122.418 323.373 119.64 322.299 117.048C321.225 114.456 319.65 112.101 317.665 110.117C315.68 108.133 313.324 106.56 310.73 105.488C308.137 104.415 305.358 103.863 302.551 103.865C298.262 103.851 294.074 105.165 290.561 107.625C294.011 104.92 298.153 103.24 302.513 102.777C306.873 102.313 311.275 103.086 315.217 105.006C319.159 106.925 322.48 109.915 324.803 113.633C327.126 117.351 328.355 121.647 328.352 126.031H328.362Z" fill="white"/>
<path d="M235.941 251.331H209.52V250.317H215.482C215.883 250.313 216.27 250.17 216.577 249.911C216.883 249.653 217.09 249.295 217.161 248.901L219.831 233.012L220.354 229.884H229.401L237.5 248.977C237.61 249.234 237.655 249.515 237.63 249.794C237.604 250.072 237.51 250.341 237.356 250.574C237.201 250.807 236.991 250.999 236.744 251.131C236.497 251.263 236.221 251.332 235.941 251.331Z" fill="#0F75BC"/>
<path opacity="0.4" d="M235.941 251.331H209.52V250.317H215.482C215.883 250.313 216.27 250.17 216.577 249.911C216.883 249.653 217.09 249.295 217.161 248.901L219.831 233.012L220.354 229.884H229.401L237.5 248.977C237.61 249.234 237.655 249.515 237.63 249.794C237.604 250.072 237.51 250.341 237.356 250.574C237.201 250.807 236.991 250.999 236.744 251.131C236.497 251.263 236.221 251.332 235.941 251.331Z" fill="white"/>
<path opacity="0.2" d="M235.974 250.317H215.482C215.883 250.313 216.27 250.17 216.577 249.911C216.883 249.653 217.09 249.295 217.161 248.901L219.831 233.012H229.314L236.53 249.478C236.57 249.57 236.587 249.67 236.578 249.77C236.569 249.87 236.536 249.965 236.48 250.049C236.425 250.132 236.35 250.201 236.261 250.248C236.173 250.294 236.074 250.318 235.974 250.317Z" fill="black"/>
<path d="M250.144 235.736H197.29C197.17 235.742 197.05 235.719 196.94 235.67C196.83 235.62 196.734 235.546 196.657 235.453C196.581 235.36 196.528 235.251 196.501 235.133C196.475 235.016 196.476 234.894 196.505 234.777L204.026 195.067C204.081 194.811 204.217 194.58 204.413 194.407C204.609 194.235 204.856 194.13 205.116 194.108H257.959C258.079 194.102 258.199 194.124 258.309 194.174C258.418 194.223 258.515 194.297 258.59 194.391C258.665 194.484 258.718 194.594 258.743 194.711C258.768 194.829 258.764 194.951 258.733 195.067L251.234 234.766C251.181 235.024 251.046 235.257 250.85 235.432C250.654 235.607 250.406 235.714 250.144 235.736Z" fill="#0F75BC"/>
<path opacity="0.4" d="M250.144 235.736H197.29C197.17 235.742 197.05 235.719 196.94 235.67C196.83 235.62 196.734 235.546 196.657 235.453C196.581 235.36 196.528 235.251 196.501 235.133C196.475 235.016 196.476 234.894 196.505 234.777L204.026 195.067C204.081 194.811 204.217 194.58 204.413 194.407C204.609 194.235 204.856 194.13 205.116 194.108H257.959C258.079 194.102 258.199 194.124 258.309 194.174C258.418 194.223 258.515 194.297 258.59 194.391C258.665 194.484 258.718 194.594 258.743 194.711C258.768 194.829 258.764 194.951 258.733 195.067L251.234 234.766C251.181 235.024 251.046 235.257 250.85 235.432C250.654 235.607 250.406 235.714 250.144 235.736Z" fill="white"/>
<path d="M249.054 235.736H196.2C196.08 235.742 195.96 235.719 195.85 235.67C195.74 235.62 195.644 235.546 195.567 235.453C195.491 235.36 195.438 235.251 195.411 235.133C195.385 235.016 195.386 234.894 195.415 234.777L202.936 195.067C202.991 194.811 203.127 194.58 203.323 194.407C203.519 194.235 203.766 194.13 204.026 194.108H256.869C256.989 194.102 257.109 194.124 257.219 194.174C257.328 194.223 257.425 194.297 257.5 194.391C257.575 194.484 257.628 194.594 257.653 194.711C257.678 194.829 257.674 194.951 257.643 195.067L250.144 234.766C250.091 235.024 249.956 235.257 249.76 235.432C249.564 235.607 249.316 235.714 249.054 235.736Z" fill="#263238"/>
<path d="M248.357 233.295H197.824L204.778 196.56H255.3L248.357 233.295Z" fill="#0F75BC"/>
<path d="M160.285 251.331V250.088L180.624 245.98H220.42C221.128 245.98 221.807 246.261 222.308 246.762C222.809 247.263 223.09 247.942 223.09 248.65C223.09 249.359 222.809 250.039 222.309 250.542C221.808 251.044 221.129 251.328 220.42 251.331H160.285Z" fill="#0F75BC"/>
<path opacity="0.4" d="M223.09 248.661C223.092 249.367 222.814 250.045 222.316 250.546C221.812 251.047 221.131 251.329 220.42 251.331H160.285V250.099L180.635 245.98H220.42C220.771 245.98 221.12 246.049 221.444 246.184C221.769 246.319 222.064 246.517 222.312 246.766C222.56 247.015 222.757 247.311 222.89 247.636C223.024 247.961 223.092 248.309 223.09 248.661Z" fill="white"/>
<path opacity="0.4" d="M223.09 248.661C223.092 249.367 222.814 250.045 222.316 250.546C221.812 251.047 221.131 251.329 220.42 251.331H196.255V250.099L216.605 245.98H220.42C220.771 245.98 221.12 246.049 221.444 246.184C221.769 246.319 222.064 246.517 222.312 246.766C222.56 247.015 222.757 247.311 222.89 247.636C223.024 247.961 223.092 248.309 223.09 248.661Z" fill="white"/>
<path d="M237.631 393.86H243.081L252.858 257.706H245.632L237.631 393.86Z" fill="#263238"/>
<path opacity="0.1" d="M237.631 393.86H243.081L252.379 264.462L252.858 257.924H245.632L245.25 264.462L237.631 393.86Z" fill="white"/>
<path opacity="0.2" d="M245.25 264.135H252.379L252.858 257.924H245.632L245.25 264.135Z" fill="black"/>
<path d="M197.682 393.86H203.122L204.015 257.706H196.789L197.682 393.86Z" fill="#263238"/>
<path opacity="0.1" d="M196.789 257.924L196.93 279.893L197.672 393.86H203.122L203.863 279.893L204.004 257.924H196.789Z" fill="white"/>
<path opacity="0.2" d="M196.789 257.924L196.93 280.133H203.863L204.004 257.924H196.789Z" fill="black"/>
<path d="M139.88 393.86H145.319L155.107 257.706H147.88L139.88 393.86Z" fill="#263238"/>
<path opacity="0.1" d="M139.869 393.86H145.319L154.627 264.462L155.107 257.924H147.88L147.488 264.462L139.869 393.86Z" fill="white"/>
<path opacity="0.2" d="M147.488 264.135H154.627L155.107 257.924H147.88L147.488 264.135Z" fill="black"/>
<path d="M299.914 393.86H305.353L297.352 257.706H290.136L299.914 393.86Z" fill="#263238"/>
<path opacity="0.1" d="M290.136 257.924L290.616 264.462L299.914 393.86H305.353L297.744 264.462L297.352 257.924H290.136Z" fill="white"/>
<path opacity="0.2" d="M297.352 257.924H290.136L290.616 264.135H297.744L297.352 257.924Z" fill="black"/>
<path d="M300.72 261.106H144.512C144.203 261.106 143.897 261.045 143.611 260.927C143.326 260.808 143.066 260.635 142.847 260.417C142.629 260.198 142.455 259.938 142.337 259.653C142.219 259.367 142.158 259.061 142.158 258.752V254.284L303.075 254.284V258.752C303.075 259.061 303.014 259.367 302.895 259.653C302.777 259.938 302.604 260.198 302.385 260.417C302.166 260.635 301.907 260.808 301.621 260.927C301.335 261.045 301.029 261.106 300.72 261.106Z" fill="#0F75BC"/>
<path opacity="0.4" d="M300.72 261.106H144.512C144.203 261.106 143.897 261.045 143.611 260.927C143.326 260.808 143.066 260.635 142.847 260.417C142.629 260.198 142.455 259.938 142.337 259.653C142.219 259.367 142.158 259.061 142.158 258.752V254.284L303.075 254.284V258.752C303.075 259.061 303.014 259.367 302.895 259.653C302.777 259.938 302.604 260.198 302.385 260.417C302.166 260.635 301.907 260.808 301.621 260.927C301.335 261.045 301.029 261.106 300.72 261.106Z" fill="white"/>
<path opacity="0.2" d="M142.147 257.695H303.075V254.284L142.147 254.284V257.695Z" fill="black"/>
<path d="M138.779 255.177H306.454C306.962 255.177 307.45 254.975 307.81 254.616C308.17 254.256 308.372 253.768 308.372 253.26C308.372 252.751 308.17 252.263 307.81 251.903C307.45 251.544 306.962 251.342 306.454 251.342H138.779C138.27 251.342 137.782 251.544 137.422 251.903C137.063 252.263 136.86 252.751 136.86 253.26C136.86 253.768 137.063 254.256 137.422 254.616C137.782 254.975 138.27 255.177 138.779 255.177Z" fill="#0F75BC"/>
<path opacity="0.4" d="M138.779 255.177H306.454C306.962 255.177 307.45 254.975 307.81 254.616C308.17 254.256 308.372 253.768 308.372 253.26C308.372 252.751 308.17 252.263 307.81 251.903C307.45 251.544 306.962 251.342 306.454 251.342H138.779C138.27 251.342 137.782 251.544 137.422 251.903C137.063 252.263 136.86 252.751 136.86 253.26C136.86 253.768 137.063 254.256 137.422 254.616C137.782 254.975 138.27 255.177 138.779 255.177Z" fill="white"/>
<path opacity="0.3" d="M207.58 217.145C207.34 217.143 207.104 217.088 206.889 216.985C206.673 216.882 206.482 216.732 206.33 216.547C206.179 216.362 206.069 216.146 206.01 215.914C205.951 215.682 205.944 215.44 205.988 215.205L206.664 211.729C206.759 211.255 207.015 210.828 207.388 210.52C207.762 210.213 208.229 210.043 208.713 210.04H237.053C237.294 210.039 237.531 210.093 237.748 210.197C237.965 210.3 238.156 210.452 238.307 210.639C238.462 210.822 238.573 211.038 238.631 211.27C238.69 211.503 238.694 211.745 238.645 211.98L237.969 215.456C237.878 215.93 237.625 216.358 237.253 216.666C236.881 216.974 236.414 217.144 235.931 217.145H207.58Z" fill="white"/>
<path d="M235.931 216.6H207.591C207.429 216.603 207.269 216.57 207.123 216.503C206.976 216.436 206.845 216.338 206.741 216.215C206.637 216.092 206.561 215.947 206.52 215.792C206.478 215.636 206.471 215.473 206.501 215.314L207.187 211.827C207.253 211.477 207.44 211.161 207.715 210.934C207.99 210.707 208.335 210.584 208.691 210.585H237.031C237.193 210.582 237.353 210.615 237.499 210.682C237.646 210.748 237.777 210.847 237.881 210.97C237.985 211.093 238.061 211.237 238.102 211.393C238.144 211.549 238.15 211.712 238.121 211.871L237.446 215.358C237.377 215.709 237.188 216.025 236.912 216.252C236.635 216.478 236.288 216.602 235.931 216.6Z" fill="white"/>
<path d="M212.384 214.403C212.939 213.609 212.878 212.607 212.246 212.166C211.615 211.724 210.653 212.01 210.097 212.804C209.542 213.598 209.603 214.6 210.235 215.041C210.866 215.483 211.828 215.197 212.384 214.403Z" fill="#263238"/>
<path d="M217.161 213.593C217.083 214.028 216.863 214.425 216.536 214.723C216.209 215.021 215.792 215.202 215.351 215.238C215.156 215.232 214.965 215.181 214.792 215.088C214.62 214.996 214.472 214.865 214.359 214.705C214.246 214.546 214.171 214.363 214.141 214.169C214.111 213.976 214.126 213.779 214.185 213.593C214.265 213.158 214.485 212.761 214.812 212.464C215.139 212.167 215.554 211.985 215.994 211.947C216.191 211.951 216.383 212.001 216.557 212.092C216.73 212.184 216.88 212.315 216.993 212.475C217.107 212.636 217.181 212.82 217.21 213.014C217.239 213.208 217.222 213.406 217.161 213.593Z" fill="#263238"/>
<path d="M221.597 213.593C221.517 214.027 221.297 214.424 220.97 214.721C220.643 215.018 220.228 215.2 219.788 215.238C219.591 215.234 219.399 215.184 219.225 215.092C219.051 215 218.902 214.869 218.787 214.71C218.673 214.55 218.598 214.366 218.567 214.172C218.536 213.978 218.551 213.78 218.61 213.593C218.692 213.157 218.914 212.76 219.243 212.463C219.572 212.166 219.989 211.985 220.431 211.947C220.626 211.953 220.817 212.004 220.99 212.097C221.162 212.189 221.31 212.32 221.423 212.48C221.536 212.639 221.611 212.823 221.641 213.016C221.671 213.209 221.656 213.406 221.597 213.593Z" fill="#263238"/>
<path d="M225.684 214.395C226.24 213.601 226.178 212.599 225.547 212.158C224.915 211.716 223.953 212.002 223.398 212.796C222.842 213.59 222.904 214.592 223.535 215.033C224.167 215.475 225.129 215.189 225.684 214.395Z" fill="#263238"/>
<path d="M230.459 213.593C230.377 214.028 230.155 214.425 229.826 214.722C229.497 215.019 229.08 215.2 228.638 215.238C228.443 215.232 228.252 215.181 228.079 215.088C227.907 214.996 227.759 214.865 227.646 214.705C227.533 214.546 227.458 214.363 227.428 214.169C227.398 213.976 227.413 213.779 227.472 213.593C227.553 213.159 227.774 212.763 228.101 212.466C228.427 212.169 228.842 211.987 229.282 211.947C229.478 211.951 229.67 212.001 229.844 212.093C230.018 212.185 230.168 212.316 230.282 212.475C230.396 212.635 230.471 212.819 230.502 213.013C230.533 213.207 230.518 213.405 230.459 213.593Z" fill="#263238"/>
<path d="M234.539 214.412C235.095 213.618 235.033 212.617 234.402 212.175C233.77 211.734 232.808 212.019 232.253 212.813C231.697 213.608 231.759 214.609 232.39 215.051C233.022 215.492 233.984 215.206 234.539 214.412Z" fill="#263238"/>
<path opacity="0.3" d="M239.887 217.145C239.704 217.147 239.523 217.108 239.357 217.031C239.191 216.954 239.044 216.84 238.928 216.698C238.804 216.549 238.717 216.372 238.673 216.183C238.63 215.994 238.631 215.797 238.677 215.608L239.538 211.249C239.614 210.892 239.808 210.571 240.089 210.338C240.37 210.105 240.721 209.973 241.086 209.963H245.446C245.629 209.961 245.811 210 245.977 210.078C246.143 210.155 246.289 210.269 246.405 210.41C246.529 210.56 246.617 210.736 246.66 210.925C246.704 211.115 246.702 211.311 246.656 211.5L245.795 215.859C245.719 216.216 245.525 216.537 245.244 216.771C244.964 217.004 244.612 217.136 244.247 217.145H239.887Z" fill="white"/>
<path d="M239.887 216.6H244.247C244.481 216.588 244.705 216.501 244.886 216.352C245.066 216.203 245.194 215.999 245.25 215.772L246.111 211.413C246.138 211.311 246.141 211.204 246.12 211.101C246.098 210.997 246.053 210.9 245.987 210.818C245.922 210.735 245.837 210.669 245.742 210.625C245.646 210.58 245.541 210.559 245.435 210.563H241.075C240.836 210.574 240.608 210.663 240.425 210.817C240.242 210.97 240.114 211.18 240.062 211.413L239.201 215.772C239.177 215.873 239.177 215.979 239.201 216.08C239.225 216.182 239.272 216.276 239.338 216.356C239.405 216.436 239.489 216.5 239.584 216.543C239.679 216.585 239.783 216.605 239.887 216.6Z" fill="#263238"/>
<path d="M242.1 215.499C242.067 215.501 242.034 215.495 242.004 215.481C241.974 215.468 241.947 215.448 241.926 215.423C241.886 215.36 241.873 215.285 241.887 215.212C241.901 215.139 241.942 215.075 242.002 215.031L243.735 213.592L242.58 212.154C242.538 212.092 242.522 212.015 242.537 211.942C242.551 211.868 242.594 211.804 242.656 211.762C242.708 211.714 242.776 211.688 242.847 211.688C242.917 211.688 242.985 211.714 243.037 211.762L244.345 213.396C244.387 213.458 244.402 213.535 244.388 213.608C244.374 213.682 244.331 213.746 244.269 213.788L242.318 215.423C242.256 215.473 242.179 215.5 242.1 215.499Z" fill="#0F75BC"/>
<path d="M244.062 213.865H241.119C241.085 213.866 241.051 213.859 241.021 213.845C240.99 213.831 240.963 213.81 240.942 213.783C240.921 213.757 240.906 213.726 240.899 213.693C240.892 213.659 240.892 213.625 240.901 213.592C240.918 213.517 240.959 213.45 241.018 213.4C241.077 213.351 241.151 213.323 241.228 213.32H244.16C244.194 213.319 244.228 213.326 244.258 213.34C244.289 213.354 244.316 213.375 244.337 213.402C244.358 213.428 244.373 213.459 244.38 213.492C244.387 213.525 244.387 213.56 244.378 213.592C244.362 213.666 244.322 213.732 244.265 213.781C244.208 213.83 244.137 213.86 244.062 213.865Z" fill="#0F75BC"/>
<path d="M148.534 147.335H172.035C174.515 147.335 176.526 145.325 176.526 142.846V119.35C176.526 116.871 174.515 114.861 172.035 114.861H148.534C146.054 114.861 144.044 116.871 144.044 119.35V142.846C144.044 145.325 146.054 147.335 148.534 147.335Z" fill="#0F75BC"/>
<path d="M157.745 146.115L160.285 157.034L162.824 146.115H157.745Z" fill="#0F75BC"/>
<path opacity="0.3" d="M160.001 140.829C157.237 139.182 154.929 136.869 153.288 134.101C151.647 131.334 150.724 128.2 150.605 124.984V124.636L160.274 120.516L169.931 124.636V124.984C169.819 128.2 168.901 131.336 167.261 134.104C165.621 136.873 163.312 139.185 160.546 140.829L160.263 141.004L160.001 140.829Z" fill="white"/>
<path opacity="0.6" d="M160.285 121.116L169.408 124.995C169.308 128.12 168.419 131.168 166.824 133.857C165.229 136.545 162.979 138.786 160.285 140.372V121.116Z" fill="white"/>
<path opacity="0.4" d="M160.285 121.116L151.15 124.995C151.251 128.121 152.142 131.17 153.739 133.858C155.336 136.547 157.588 138.788 160.285 140.372V121.116Z" fill="white"/>
<path d="M151.51 244.225L159.14 245.37C160.872 244.819 162.654 244.436 164.459 244.225C166.418 244.064 168.386 244.064 170.345 244.225C170.345 244.225 173.8 245.522 173.8 248.824C173.8 248.824 165.745 251.004 162.661 249.685L151.51 248.824V244.225Z" fill="#E4897B"/>
<path opacity="0.2" d="M151.51 244.225L159.14 245.37C160.872 244.819 162.654 244.436 164.459 244.225C166.418 244.064 168.386 244.064 170.345 244.225C170.345 244.225 173.8 245.522 173.8 248.824C173.8 248.824 165.745 251.004 162.661 249.685L151.51 248.824V244.225Z" fill="black"/>
<path d="M170.411 192.713C170.529 194.28 170.837 195.828 171.326 197.322C170.926 197.568 170.466 197.698 169.996 197.698C169.527 197.698 169.067 197.568 168.667 197.322L170.411 192.713Z" fill="#AA473D"/>
<path d="M173.386 190.533C173.092 191.241 172.569 191.699 172.209 191.546C171.849 191.394 171.817 190.718 172.1 190.01C172.383 189.302 172.918 188.855 173.277 188.996C173.637 189.138 173.67 189.836 173.386 190.533Z" fill="#263238"/>
<path d="M175.174 188.092C175.11 188.111 175.042 188.111 174.978 188.092C174.398 187.752 173.75 187.545 173.08 187.489C172.41 187.432 171.737 187.527 171.108 187.765C171.014 187.813 170.905 187.821 170.805 187.789C170.705 187.756 170.622 187.685 170.574 187.591C170.526 187.497 170.518 187.388 170.551 187.288C170.583 187.188 170.655 187.104 170.748 187.057C171.495 186.753 172.303 186.627 173.107 186.689C173.911 186.752 174.69 187.001 175.381 187.416C175.426 187.443 175.465 187.479 175.496 187.521C175.527 187.563 175.549 187.611 175.561 187.661C175.573 187.712 175.575 187.765 175.567 187.816C175.558 187.868 175.54 187.917 175.512 187.961C175.471 188.01 175.419 188.048 175.36 188.071C175.301 188.094 175.237 188.101 175.174 188.092Z" fill="#263238"/>
<path d="M168.285 198.641C168.034 198.946 167.784 199.24 167.511 199.513C165.985 201.098 164.012 202.182 161.854 202.618C161.308 202.729 160.754 202.802 160.197 202.836C158.731 202.928 157.263 202.692 155.9 202.145C154.537 201.598 153.313 200.755 152.317 199.676C151.417 198.7 150.728 197.55 150.289 196.298C148.338 191.067 150.289 186.948 153.112 179.701C153.74 178.002 154.791 176.492 156.166 175.313C157.541 174.134 159.195 173.325 160.97 172.964C162.745 172.603 164.582 172.701 166.309 173.248C168.036 173.796 169.594 174.775 170.836 176.094C176.482 182.044 172.689 192.974 168.285 198.641Z" fill="#E4897B"/>
<path opacity="0.2" d="M161.854 202.618C161.308 202.729 160.754 202.802 160.197 202.836C158.731 202.928 157.263 202.692 155.9 202.145C154.537 201.599 153.313 200.755 152.317 199.676C153.017 198.972 153.804 198.36 154.66 197.856C157.466 198.719 159.964 200.372 161.854 202.618Z" fill="black"/>
<path d="M138.354 202.891C139.073 207.991 150.235 209.898 150.235 209.898C150.235 209.898 155.685 212.405 155.968 210.225C153.69 207.588 153.439 205.288 154.224 203.272C154.745 202.043 155.508 200.931 156.469 200.003C156.982 199.471 157.524 198.969 158.094 198.499L154.682 184.529C152.229 189.868 143.88 202.128 138.354 202.891Z" fill="#E4897B"/>
<path d="M170.203 172.182C170.203 172.182 172.591 171.887 174.422 176.334C175.959 180.071 172.329 180.889 172.492 184.866C172.656 188.844 169.004 191.056 169.004 191.056C169.004 191.056 165.952 193.693 163.347 192.266C163.347 192.266 159.947 193.933 159.053 196.843C158.159 199.752 152.894 194.5 148.153 195.295C148.153 195.295 144.948 192.298 145.188 185.019C145.369 181.858 146.146 178.76 147.477 175.887C148.106 174.366 149.031 172.985 150.198 171.825C151.366 170.665 152.753 169.749 154.279 169.13C159.696 166.667 169.19 168.498 170.203 172.182Z" fill="#263238"/>
<path d="M162.693 190.075C162.529 190.8 162.527 191.553 162.689 192.279C162.852 193.004 163.173 193.685 163.631 194.271C164.786 195.535 166.65 193.933 167.402 191.721C168.056 189.748 168.285 186.664 166.585 186.272C164.884 185.88 163.053 187.95 162.693 190.075Z" fill="#E4897B"/>
<path d="M163.892 207.108C162.33 211.467 160.935 215.645 159.707 219.64C158.922 222.125 158.203 224.555 157.527 226.898C156.975 228.867 156.459 230.778 155.979 232.63C155.75 233.524 155.521 234.407 155.303 235.278C154.104 240.084 153.123 244.465 152.371 248.356C151.101 254.429 150.158 260.565 149.548 266.74L106.82 261.356C108.302 254.011 109.458 247.593 111.071 240.651C111.965 236.859 112.978 232.914 114.341 228.587C115.257 225.482 116.325 222.18 117.611 218.594C121.906 206.28 125.862 202.869 125.862 202.869C142.201 200.254 163.892 207.108 163.892 207.108Z" fill="#263238"/>
<path d="M178.117 245.021L185.747 246.165C187.479 245.615 189.261 245.231 191.066 245.021C193.028 244.86 195.001 244.86 196.963 245.021C196.963 245.021 200.407 246.318 200.407 249.62C200.407 249.62 192.363 251.799 189.268 250.481L178.128 249.62L178.117 245.021Z" fill="#E4897B"/>
<path d="M130.887 385.894L138.855 386.035L142.823 367.673L134.866 367.531L130.887 385.894Z" fill="#EBB376"/>
<path opacity="0.2" d="M134.866 367.531L142.823 367.684L140.556 378.178L132.675 377.655L134.866 367.531Z" fill="black"/>
<path d="M156.491 340.931C153.455 352.617 149.576 364.067 144.883 375.192L130.353 374.103C130.353 374.103 136.315 350.815 138.474 329.477C139.814 316.313 139.694 305.415 135.836 304.576C133.416 304.042 127.737 304.053 120.456 304.228V277.093C140.872 281.288 161.189 289.189 162.737 295.531C164.895 304.456 161.124 323.353 156.491 340.931Z" fill="#0F75BC"/>
<path d="M128.805 374.756L146.115 375.912L148.665 368.425L129.59 367.542L128.805 374.756Z" fill="#0F75BC"/>
<path opacity="0.2" d="M128.805 374.756L146.115 375.912L148.665 368.425L129.59 367.542L128.805 374.756Z" fill="white"/>
<path d="M140.054 385.643H140.218C140.218 385.643 140.403 385.698 140.425 385.72H140.49C141.163 385.933 141.858 386.071 142.561 386.134C143.085 386.231 143.627 386.126 144.076 385.839C144.219 385.715 144.322 385.552 144.375 385.371C144.427 385.189 144.425 384.996 144.37 384.815C144.353 384.697 144.307 384.584 144.237 384.488C144.167 384.391 144.074 384.312 143.967 384.259C143.214 384.139 142.443 384.285 141.787 384.673C142.256 384.179 142.534 383.534 142.572 382.853C142.54 382.693 142.457 382.546 142.335 382.436C142.213 382.327 142.059 382.259 141.896 382.243C141.586 382.197 141.271 382.271 141.013 382.45C140.174 383.169 140.043 385.425 140.043 385.556L140.054 385.643ZM140.915 385.186L140.752 385.273C140.7 384.412 140.934 383.557 141.417 382.843C141.469 382.79 141.532 382.749 141.602 382.723C141.671 382.696 141.746 382.685 141.82 382.69H141.918C142.18 382.69 142.234 382.864 142.245 382.973C142.077 383.844 141.606 384.628 140.915 385.186ZM141.024 385.578C141.983 385.044 143.346 384.488 143.858 384.695C143.909 384.722 143.953 384.761 143.985 384.808C144.017 384.856 144.037 384.91 144.043 384.968C144.076 385.082 144.076 385.203 144.046 385.318C144.015 385.433 143.954 385.538 143.869 385.621C143.477 385.97 142.43 385.948 141.024 385.578Z" fill="#0F75BC"/>
<path d="M139.869 384.684L130.942 384.128C130.793 384.113 130.644 384.157 130.528 384.251C130.411 384.345 130.337 384.481 130.32 384.63L129.448 391.659C129.424 392.028 129.547 392.392 129.79 392.672C130.033 392.951 130.376 393.124 130.745 393.152C133.863 393.293 135.356 393.206 139.28 393.424C142.763 393.782 146.267 393.892 149.766 393.751C153.036 393.435 152.676 390.155 151.248 390.002C147.837 389.61 143.335 387.114 141.199 385.218C140.828 384.895 140.36 384.707 139.869 384.684Z" fill="#263238"/>
<path opacity="0.2" d="M156.491 340.931C151.041 337.498 144.708 333.455 138.474 329.455C139.814 316.291 139.694 305.394 135.836 304.554C133.416 304.02 127.737 304.031 120.456 304.206V277.093C140.872 281.288 161.189 289.189 162.737 295.531C164.895 304.456 161.124 323.353 156.491 340.931Z" fill="black"/>
<path d="M177.463 385.894L185.431 386.035L189.398 367.673L181.441 367.531L177.463 385.894Z" fill="#EBB376"/>
<path opacity="0.2" d="M181.441 367.531L189.398 367.684L187.131 378.178L179.25 377.655L181.441 367.531Z" fill="black"/>
<path d="M148.534 274.433L149.82 264.146L108.215 257.292C108.215 257.292 94.6011 284.252 101.261 297.504C107.376 309.622 172.405 302.397 182.411 304.587C192.418 306.777 176.961 374.124 176.961 374.124L191.502 375.214C191.502 375.214 213.956 314.624 209.345 295.564C207.296 287.227 173.016 276.21 148.534 274.433Z" fill="#0F75BC"/>
<path d="M175.381 374.756L192.69 375.912L195.241 368.425L176.166 367.542L175.381 374.756Z" fill="#0F75BC"/>
<path opacity="0.2" d="M175.381 374.756L192.69 375.912L195.241 368.425L176.166 367.542L175.381 374.756Z" fill="white"/>
<path d="M186.63 385.643H186.793C186.793 385.643 186.979 385.698 187 385.72H187.066C187.739 385.933 188.433 386.071 189.137 386.134C189.661 386.231 190.202 386.126 190.652 385.839C190.794 385.715 190.898 385.552 190.95 385.371C191.003 385.189 191.001 384.996 190.946 384.815C190.929 384.697 190.883 384.584 190.813 384.488C190.743 384.391 190.65 384.312 190.543 384.259C189.79 384.139 189.019 384.285 188.363 384.673C188.832 384.179 189.11 383.534 189.148 382.853C189.116 382.693 189.033 382.546 188.911 382.436C188.789 382.327 188.635 382.259 188.472 382.243C188.162 382.197 187.846 382.271 187.589 382.45C186.75 383.169 186.619 385.425 186.619 385.556L186.63 385.643ZM187.491 385.186L187.327 385.273C187.276 384.412 187.509 383.557 187.992 382.843C188.045 382.79 188.108 382.749 188.177 382.723C188.247 382.696 188.321 382.685 188.396 382.69H188.494C188.755 382.69 188.81 382.864 188.821 382.973C188.654 383.848 188.178 384.633 187.48 385.186H187.491ZM187.6 385.578C188.559 385.044 189.922 384.488 190.434 384.695C190.485 384.722 190.528 384.761 190.561 384.808C190.593 384.856 190.613 384.91 190.619 384.968C190.651 385.082 190.652 385.203 190.621 385.318C190.591 385.433 190.53 385.538 190.445 385.621C190.052 385.97 189.006 385.948 187.6 385.578Z" fill="#0F75BC"/>
<path d="M186.444 384.684L177.517 384.128C177.369 384.113 177.22 384.157 177.103 384.251C176.987 384.345 176.913 384.481 176.896 384.63L176.024 391.659C176 392.028 176.123 392.392 176.366 392.672C176.609 392.951 176.952 393.124 177.321 393.152C180.439 393.293 181.932 393.206 185.856 393.424C189.339 393.782 192.843 393.892 196.342 393.751C199.666 393.435 199.263 390.155 197.824 390.002C194.412 389.61 189.911 387.114 187.774 385.218C187.404 384.895 186.935 384.707 186.444 384.684Z" fill="#263238"/>
<path d="M106.689 261.977L125.96 264.506L126.593 261.661L107.278 258.85L106.689 261.977Z" fill="black"/>
<path d="M128.195 261.683L127.955 264.506L145.777 266.958V264.157L128.195 261.683Z" fill="black"/>
<path d="M146.878 264.321V266.958L149.472 267.296V264.746L146.878 264.321Z" fill="black"/>
<path opacity="0.2" d="M159.707 219.64C158.922 222.125 158.203 224.555 157.527 226.898C156.975 228.867 156.459 230.778 155.979 232.63C154.638 225.329 157.069 216.611 157.069 216.611L159.707 219.64Z" fill="black"/>
<path d="M163.892 207.054C167.369 207.762 168.514 234.777 168.667 237.654C168.819 240.531 185.736 246.122 185.736 246.122V250.056C185.736 250.056 167.598 248.791 163.358 247.059C159.118 245.326 158.05 220.305 158.05 220.305L163.892 207.054Z" fill="#E4897B"/>
<path d="M163.892 207.054C167.086 208.045 168.667 225.863 168.667 225.863L158.791 229.939L156.339 220.033C156.339 220.033 155.641 218.017 157.014 213.767C159.009 207.566 163.892 207.054 163.892 207.054Z" fill="#263238"/>
<path d="M90.2302 295.891H168.95C171.237 295.891 173.43 296.799 175.047 298.415C176.663 300.032 177.572 302.224 177.572 304.511V309.12H81.6083V304.511C81.6083 302.224 82.5166 300.032 84.1336 298.415C85.7505 296.799 87.9435 295.891 90.2302 295.891Z" fill="#0F75BC"/>
<path d="M115.834 263.122H168.688C169.325 263.122 169.954 263.265 170.528 263.542C171.102 263.819 171.605 264.222 172.002 264.721C172.398 265.219 172.676 265.801 172.816 266.422C172.956 267.044 172.953 267.689 172.809 268.309L163.358 309.12H161.178L169.222 273.355C169.363 272.736 169.363 272.094 169.222 271.476C169.08 270.858 168.801 270.28 168.405 269.785C168.009 269.289 167.506 268.89 166.935 268.615C166.363 268.341 165.737 268.199 165.102 268.2H116.913L115.834 263.122Z" fill="#263238"/>
<path d="M135.847 310.581V345.071C135.847 345.603 135.635 346.113 135.259 346.489C134.883 346.865 134.373 347.077 133.841 347.077H125.35C124.818 347.077 124.308 346.865 123.932 346.489C123.556 346.113 123.344 345.603 123.344 345.071V310.581H135.847Z" fill="#263238"/>
<path d="M89.1511 390.198C89.1511 389.474 88.9363 388.766 88.5339 388.164C88.1314 387.562 87.5594 387.092 86.8902 386.815C86.221 386.538 85.4846 386.466 84.7742 386.607C84.0638 386.748 83.4112 387.097 82.899 387.609C82.3868 388.121 82.038 388.774 81.8967 389.484C81.7554 390.194 81.8279 390.93 82.1051 391.599C82.3823 392.269 82.8517 392.84 83.454 393.243C84.0563 393.645 84.7643 393.86 85.4887 393.86C86.46 393.86 87.3916 393.474 88.0784 392.787C88.7652 392.101 89.1511 391.169 89.1511 390.198Z" fill="#263238"/>
<path opacity="0.2" d="M87.3199 390.198C87.3199 389.836 87.2125 389.482 87.0113 389.181C86.81 388.88 86.524 388.645 86.1894 388.507C85.8548 388.368 85.4866 388.332 85.1314 388.403C84.7762 388.473 84.4499 388.648 84.1938 388.904C83.9377 389.16 83.7633 389.486 83.6927 389.841C83.622 390.196 83.6583 390.564 83.7969 390.899C83.9355 391.233 84.1702 391.519 84.4713 391.72C84.7725 391.922 85.1265 392.029 85.4887 392.029C85.9735 392.026 86.4376 391.832 86.7804 391.49C87.1232 391.147 87.317 390.683 87.3199 390.198Z" fill="white"/>
<path d="M177.387 390.198C177.389 389.471 177.175 388.759 176.772 388.154C176.369 387.548 175.796 387.076 175.124 386.797C174.452 386.517 173.713 386.444 172.999 386.585C172.286 386.726 171.63 387.076 171.116 387.591C170.602 388.105 170.251 388.76 170.11 389.474C169.969 390.187 170.042 390.926 170.322 391.598C170.601 392.269 171.074 392.843 171.679 393.245C172.285 393.648 172.997 393.862 173.724 393.86C174.695 393.857 175.625 393.47 176.311 392.784C176.997 392.098 177.384 391.168 177.387 390.198Z" fill="#263238"/>
<path opacity="0.2" d="M175.555 390.198C175.555 389.836 175.448 389.482 175.247 389.181C175.046 388.88 174.76 388.645 174.425 388.507C174.09 388.368 173.722 388.332 173.367 388.403C173.012 388.473 172.685 388.648 172.429 388.904C172.173 389.16 171.999 389.486 171.928 389.841C171.858 390.196 171.894 390.564 172.032 390.899C172.171 391.233 172.406 391.519 172.707 391.72C173.008 391.922 173.362 392.029 173.724 392.029C174.209 392.026 174.673 391.832 175.016 391.49C175.359 391.147 175.553 390.683 175.555 390.198Z" fill="white"/>
<path d="M132.631 374.113V334.686H126.571V374.113C102.961 374.724 88.6061 382.973 85.7394 384.782C85.5702 384.882 85.4312 385.026 85.3372 385.199C85.2431 385.372 85.1976 385.566 85.2053 385.763V389.032C85.2039 389.185 85.2327 389.336 85.2901 389.478C85.3475 389.619 85.4324 389.748 85.5398 389.856C85.6473 389.964 85.7751 390.051 85.916 390.109C86.0569 390.168 86.2081 390.198 86.3607 390.198C86.5648 390.196 86.7647 390.141 86.9407 390.038C87.1167 389.935 87.2625 389.787 87.3635 389.61L88.7696 387.147C101.002 383.247 113.734 381.14 126.571 380.892V387.43C126.571 387.627 126.61 387.822 126.686 388.004C126.761 388.186 126.872 388.351 127.012 388.49C127.152 388.629 127.318 388.738 127.5 388.813C127.683 388.887 127.878 388.925 128.075 388.923H131.138C131.534 388.923 131.914 388.766 132.194 388.486C132.474 388.206 132.631 387.826 132.631 387.43V380.892C145.471 381.139 158.208 383.246 170.443 387.147L171.839 389.61C171.94 389.789 172.088 389.937 172.266 390.041C172.444 390.144 172.646 390.198 172.852 390.198C173.16 390.195 173.454 390.071 173.67 389.853C173.886 389.635 174.008 389.34 174.008 389.032V385.763C174.015 385.566 173.97 385.372 173.876 385.199C173.782 385.026 173.643 384.882 173.474 384.782C170.596 382.973 156.252 374.724 132.631 374.113Z" fill="#263238"/>
<path d="M131.596 386.526H127.617V393.86H131.596V386.526Z" fill="#263238"/>
<path opacity="0.2" d="M135.847 310.548H123.377V324.878H135.847V310.548Z" fill="black"/>
<path d="M180.231 306.995V311.115C180.231 311.392 180.177 311.666 180.07 311.922C179.964 312.178 179.808 312.41 179.611 312.606C179.415 312.801 179.182 312.956 178.925 313.061C178.669 313.166 178.394 313.219 178.117 313.218H81.1069C80.8302 313.219 80.556 313.166 80.3001 313.061C80.0443 312.955 79.8118 312.801 79.6161 312.605C79.4205 312.409 79.2656 312.177 79.1604 311.921C79.0552 311.665 79.0018 311.391 79.0032 311.115V306.995C79.0032 306.438 79.2248 305.903 79.6194 305.508C80.0139 305.114 80.549 304.892 81.1069 304.892H178.117C178.676 304.892 179.212 305.113 179.608 305.507C180.005 305.902 180.229 306.437 180.231 306.995Z" fill="#263238"/>
<path d="M135.596 309.12H78.9923C78.9923 309.12 61.04 279.218 61.04 229.808V211.663C61.0429 208.081 62.4681 204.647 65.0026 202.115C67.537 199.584 70.9732 198.161 74.556 198.161H98.536C102.045 198.16 105.417 199.524 107.938 201.965C110.459 204.406 111.931 207.732 112.041 211.238C112.728 236.739 116.477 291.87 135.596 309.12Z" fill="#263238"/>
<path opacity="0.2" d="M123.17 309.12H81.5429C80.7558 309.124 79.9831 308.91 79.3099 308.502C78.6368 308.095 78.0893 307.509 77.7279 306.81C73.6295 298.92 61.04 271.208 61.04 229.808V211.663C61.04 208.082 62.4628 204.648 64.9955 202.116C67.5282 199.584 70.9633 198.161 74.5451 198.161H95.2551C98.7644 198.16 102.137 199.524 104.657 201.965C107.178 204.406 108.65 207.732 108.76 211.238C109.381 233.982 112.433 280.416 126.712 302.353C127.144 303.003 127.393 303.758 127.433 304.537C127.474 305.316 127.304 306.092 126.942 306.784C126.58 307.475 126.039 308.057 125.376 308.468C124.712 308.879 123.95 309.104 123.17 309.12Z" fill="white"/>
<path opacity="0.2" d="M180.231 306.995V311.115C180.231 311.672 180.01 312.207 179.615 312.602C179.221 312.996 178.686 313.218 178.128 313.218H134.648C134.275 313.219 133.905 313.147 133.56 313.005C133.215 312.864 132.901 312.655 132.637 312.392C132.372 312.129 132.163 311.816 132.02 311.471C131.876 311.127 131.803 310.757 131.803 310.384V307.736C131.803 306.982 132.103 306.259 132.636 305.725C133.17 305.192 133.893 304.892 134.648 304.892H178.117C178.676 304.892 179.212 305.113 179.608 305.507C180.005 305.902 180.229 306.437 180.231 306.995Z" fill="black"/>
<path d="M78.9705 196.559L82.5675 191.852C82.5675 191.852 97.9256 192.549 98.2962 198.161C98.6668 203.773 78.9705 196.559 78.9705 196.559Z" fill="#0F75BC"/>
<path d="M68.8771 210.65C68.8771 210.65 69.8145 235.605 68.8771 300.01C68.8771 302.189 60.7457 302.102 60.1571 300.01C58.206 292.676 60.1571 234.112 60.1571 234.112" fill="#0F75BC"/>
<path d="M60.3424 300.337L68.6155 300.62V304.75L60.3424 304.325V300.337Z" fill="#0F75BC"/>
<path opacity="0.2" d="M68.8771 210.65C68.8771 210.65 69.8145 235.605 68.8771 300.01C68.8771 302.189 60.7457 302.102 60.1571 300.01C58.206 292.676 60.1571 234.112 60.1571 234.112" fill="white"/>
<path d="M56.2549 286.846C55.808 274.967 54.1839 220.37 61.0073 202.281C61.0073 202.281 67.4274 194.129 89.1511 194.129C110.875 194.129 117.415 209.549 117.415 209.549C117.415 209.549 118.352 234.494 117.415 298.909C117.415 301.089 109.283 301.013 108.695 298.909C106.744 291.586 108.695 233.012 108.695 233.012L104.335 286.301C104.319 286.479 104.267 286.653 104.181 286.811C104.096 286.969 103.979 287.107 103.839 287.219C103.698 287.33 103.536 287.411 103.362 287.458C103.189 287.504 103.008 287.515 102.831 287.489C95.9745 286.399 65.7706 282.16 57.7809 287.609C57.6361 287.702 57.4696 287.755 57.2978 287.765C57.1259 287.774 56.9546 287.738 56.8006 287.661C56.6467 287.585 56.5154 287.469 56.4197 287.326C56.3241 287.183 56.2672 287.017 56.2549 286.846Z" fill="#0F75BC"/>
<path d="M108.88 299.236L117.153 299.52V303.65L108.88 303.225V299.236Z" fill="#0F75BC"/>
<path d="M103.277 287.543L102.623 291.902C102.623 291.902 68.9098 284.557 57.988 292.382L57.334 287.554C57.334 287.554 65.7706 279.773 103.277 287.543Z" fill="#0F75BC"/>
<path opacity="0.4" d="M56.2549 286.846C55.808 274.967 54.1839 220.37 61.0073 202.281C61.0073 202.281 67.4274 194.129 89.1511 194.129C110.875 194.129 117.415 209.549 117.415 209.549C117.415 209.549 118.352 234.494 117.415 298.909C117.415 301.089 109.283 301.013 108.695 298.909C106.744 291.586 108.695 233.012 108.695 233.012L104.335 286.301C104.319 286.479 104.267 286.653 104.181 286.811C104.096 286.969 103.979 287.107 103.839 287.219C103.698 287.33 103.536 287.411 103.362 287.458C103.189 287.504 103.008 287.515 102.831 287.489C95.9745 286.399 65.7706 282.16 57.7809 287.609C57.6361 287.702 57.4696 287.755 57.2978 287.765C57.1259 287.774 56.9546 287.738 56.8006 287.661C56.6467 287.585 56.5154 287.469 56.4197 287.326C56.3241 287.183 56.2672 287.017 56.2549 286.846Z" fill="white"/>
<path opacity="0.2" d="M108.728 233.012C108.728 233.012 109.207 216.099 117.448 209.549C117.415 209.549 107.147 213.963 108.728 233.012Z" fill="black"/>
<path opacity="0.2" d="M84.0063 196.08C84.0063 196.08 74.0873 201.529 72.5068 275.774C72.5068 275.774 68.1904 200.875 84.0063 196.08Z" fill="black"/>
</svg>
