<svg width="61" height="62" viewBox="0 0 61 62" fill="none" xmlns="http://www.w3.org/2000/svg">
<g filter="url(#filter0_d_1240_1431)">
<rect x="10" y="10.5" width="36" height="36" rx="18" fill="white" shape-rendering="crispEdges"/>
<path d="M20.1079 30.4943C19.9307 31.6219 20.723 32.4045 21.6931 32.7945C25.412 34.2898 30.5873 34.2898 34.3063 32.7945C35.2763 32.4045 36.0686 31.6219 35.8914 30.4943C35.7825 29.8014 35.244 29.2244 34.845 28.661C34.3224 27.9139 34.2705 27.0991 34.2704 26.2322C34.2704 22.8819 31.4629 20.166 27.9997 20.166C24.5365 20.166 21.729 22.8819 21.729 26.2322C21.7289 27.0991 21.6769 27.9139 21.1544 28.661C20.7554 29.2244 20.2169 29.8014 20.1079 30.4943Z" stroke="#444444" stroke-width="1.5" stroke-linecap="round" stroke-linejoin="round"/>
<path d="M25.5 36C26.1634 36.5183 27.0396 36.8333 28 36.8333C28.9604 36.8333 29.8366 36.5183 30.5 36" stroke="#444444" stroke-width="1.5" stroke-linecap="round" stroke-linejoin="round"/>
</g>
<defs>
<filter id="filter0_d_1240_1431" x="0" y="0.5" width="61" height="61" filterUnits="userSpaceOnUse" color-interpolation-filters="sRGB">
<feFlood flood-opacity="0" result="BackgroundImageFix"/>
<feColorMatrix in="SourceAlpha" type="matrix" values="0 0 0 0 0 0 0 0 0 0 0 0 0 0 0 0 0 0 127 0" result="hardAlpha"/>
<feOffset dx="2.5" dy="2.5"/>
<feGaussianBlur stdDeviation="6.25"/>
<feComposite in2="hardAlpha" operator="out"/>
<feColorMatrix type="matrix" values="0 0 0 0 0 0 0 0 0 0 0 0 0 0 0 0 0 0 0.05 0"/>
<feBlend mode="normal" in2="BackgroundImageFix" result="effect1_dropShadow_1240_1431"/>
<feBlend mode="normal" in="SourceGraphic" in2="effect1_dropShadow_1240_1431" result="shape"/>
</filter>
</defs>
</svg>
