<svg width="20" height="20" viewBox="0 0 20 20" fill="none" xmlns="http://www.w3.org/2000/svg">
<path d="M12.9163 10.0007C12.9163 11.6115 11.6105 12.9173 9.99967 12.9173C8.38884 12.9173 7.08301 11.6115 7.08301 10.0007C7.08301 8.38982 8.38884 7.08398 9.99967 7.08398C11.6105 7.08398 12.9163 8.38982 12.9163 10.0007Z" stroke="#0F75BC" stroke-width="1.5"/>
<path d="M18.3337 11.6397V8.36165C15.9531 8.36165 14.4051 5.77599 15.6103 3.72308L12.7236 2.08407C11.5035 4.16236 8.49849 4.16228 7.27835 2.08398L4.3916 3.72299C5.59688 5.77594 4.0476 8.36165 1.66699 8.36165V11.6397C4.04756 11.6397 5.59553 14.2254 4.39028 16.2783L7.27703 17.9173C8.49774 15.838 11.5042 15.8379 12.7249 17.9172L15.6117 16.2782C14.4065 14.2253 15.9532 11.6397 18.3337 11.6397Z" stroke="#0F75BC" stroke-width="1.5" stroke-linecap="round" stroke-linejoin="round"/>
</svg>
