<svg width="20" height="21" viewBox="0 0 20 21" fill="none" xmlns="http://www.w3.org/2000/svg">
<path fill-rule="evenodd" clip-rule="evenodd" d="M3.75004 1.95837C2.48439 1.95837 1.45837 2.98439 1.45837 4.25004V16.75C1.45837 18.0157 2.48439 19.0417 3.75004 19.0417H16.25C17.5157 19.0417 18.5417 18.0157 18.5417 16.75V4.25004C18.5417 2.98439 17.5157 1.95837 16.25 1.95837H3.75004ZM5.83337 5.70837C5.59867 5.70837 5.38375 5.83987 5.2769 6.04884C5.17005 6.25782 5.18928 6.50903 5.3267 6.69931L8.50971 11.1065L5.39143 14.2248C5.14736 14.4689 5.14736 14.8645 5.39143 15.1086C5.63552 15.3527 6.03124 15.3527 6.27532 15.1086L9.25104 12.133L11.3452 15.0326C11.4627 15.1954 11.6512 15.2917 11.8519 15.2917H14.1667C14.4014 15.2917 14.6164 15.1602 14.7232 14.9512C14.83 14.7423 14.8108 14.491 14.6734 14.3008L11.4904 9.89354L14.6086 6.77532C14.8527 6.53124 14.8527 6.13551 14.6086 5.89143C14.3645 5.64736 13.9689 5.64736 13.7248 5.89143L10.749 8.86712L8.65487 5.96744C8.53737 5.80475 8.34887 5.70837 8.14819 5.70837H5.83337Z" fill="white"/>
</svg>
