<svg width="24" height="24" viewBox="0 0 24 24" fill="none" xmlns="http://www.w3.org/2000/svg">
<path d="M13 6.5V11H17.5M20 4L13.4059 10.5941" stroke="#444444" stroke-width="1.5" stroke-linecap="round" stroke-linejoin="round"/>
<path d="M3.99977 11.9995L7.49012 8.50915C7.79448 8.20479 7.86993 7.73982 7.67744 7.35483L5.62025 3.24045C5.315 2.62995 4.50135 2.49792 4.01871 2.98056L2.58556 4.41371C2.21048 4.78879 1.99418 5.29812 2.0196 5.82794C2.43848 14.5575 9.44175 21.5608 18.1714 21.9797C18.7012 22.0051 19.2105 21.7888 19.5856 21.4137L21.0187 19.9806C21.5014 19.4979 21.3693 18.6843 20.7588 18.379L16.6445 16.3218C16.2595 16.1293 15.7945 16.2048 15.4901 16.5092L11.9998 19.9995" stroke="#444444" stroke-width="1.5" stroke-linecap="round" stroke-linejoin="round"/>
</svg>
